<?xml version="1.0" encoding="UTF-8"?>
<svg id="Calque_1" data-name="Calque 1" xmlns="http://www.w3.org/2000/svg" viewBox="0 0 1842.51969 1824.68707">
  <defs>
    <style>
      .cls-1 {
        fill: #074032;
        stroke-width: 0px;
      }
    </style>
  </defs>
  <path class="cls-1" d="M857.56264,1.10319c-2.62021.74863-9.54504,1.49726-15.53408,1.68442-18.71576.37432-87.0283,11.41662-127.64151,20.58734-4.11747.93579-10.48083,2.24589-14.03682,2.99452s-8.23494,1.87158-10.29367,2.80736c-3.93031,1.68442-11.0423,3.36884-21.14881,5.05326-3.36884.56147-6.55052,1.68442-7.11199,2.62021s-2.99452,1.68442-5.42757,1.68442-5.05326.74863-5.61473,1.87158c-.56147.93579-3.556,1.87158-6.73767,1.87158-2.99452,0-5.42757.74863-5.42757,1.87158,0,.93579-2.43305,1.87158-5.61473,1.87158-2.99452,0-5.61473.74863-5.61473,1.49726s-2.24589,1.68442-5.05326,1.87158c-2.99452.18716-5.42757,1.3101-5.80189,2.24589-.37432,1.12295-2.80736,1.87158-5.24041,1.87158s-5.98904.74863-7.86062,1.68442c-3.36884,1.68442-10.85514,4.8661-19.09008,8.23494-2.62021.93579-6.1762,2.43305-7.86062,3.36884-1.87158.93579-4.11747,1.68442-5.24041,1.68442-.93579,0-8.04778,2.80736-15.34693,6.1762-7.48631,3.556-20.02587,9.17072-27.69933,12.72672-7.67346,3.36884-20.40018,9.54504-28.07365,13.66251s-15.9084,8.23494-18.15429,9.35788c-2.43305,1.12295-4.30463,2.62021-4.30463,3.36884,0,.93579-1.68442,1.49726-3.556,1.49726-2.05873,0-3.93031.56147-4.30463,1.3101-.74863,1.87158-10.66799,7.86062-14.97261,9.35788-1.87158.56147-3.36884,1.68442-3.36884,2.62021s-1.3101,1.68442-2.80736,1.68442c-1.68442,0-4.67894,1.68442-6.92483,3.74315s-5.24041,3.74315-6.55052,3.74315-2.43305.74863-2.43305,1.87158c0,.93579-.93579,1.87158-2.05873,1.87158-1.68442,0-34.437,21.33597-37.24437,24.33049-.56147.56147-4.30463,3.36884-8.60925,6.1762-4.11747,2.80736-9.17072,6.55052-11.22946,8.42209-1.87158,1.87158-6.55052,5.42757-10.10651,7.86062-7.11199,5.05326-12.16525,8.98357-15.9084,12.53956-1.49726,1.3101-2.99452,2.43305-3.556,2.43305-1.3101,0-7.11199,4.67894-16.46987,13.47535-4.11747,3.93031-8.04778,7.11199-8.98357,7.11199-1.49726,0-84.22094,81.97504-90.20998,89.46135-1.87158,2.24589-3.36884,4.67894-3.36884,5.05326,0,.56147-2.80736,3.93031-5.98904,7.29915-3.36884,3.36884-8.42209,8.98357-11.22946,12.53956-2.62021,3.556-6.73767,8.42209-8.79641,10.85514-2.24589,2.43305-3.93031,5.05326-3.93031,5.61473s-1.87158,3.36884-4.11747,5.80189c-9.91935,11.0423-38.92879,52.21698-38.92879,55.2115,0,.56147-1.68442,2.80736-3.74315,5.05326s-3.74315,5.24041-3.74315,6.55052-.74863,2.43305-1.68442,2.43305-2.43305,1.68442-2.99452,3.74315-2.24589,4.8661-3.36884,5.98904c-1.3101,1.3101-4.30463,6.1762-6.73767,10.85514-2.62021,4.67894-5.05326,8.79641-5.61473,9.35788-1.87158,1.49726-12.3524,21.14881-26.01491,48.66098-6.92483,13.84966-13.10103,25.45344-13.84966,25.82775-.93579.37432-1.49726,2.24589-1.49726,4.30463,0,1.87158-.74863,3.556-1.87158,3.556-.93579,0-1.87158,1.3101-1.87158,2.80736s-1.68442,5.61473-3.74315,9.35788-3.74315,8.23494-3.74315,10.29367-.74863,3.74315-1.87158,3.74315c-.93579,0-1.87158,1.68442-1.87158,3.74315s-.74863,3.74315-1.87158,3.74315c-.93579,0-1.87158,1.87158-1.87158,4.30463s-.74863,5.05326-1.49726,6.1762c-.93579.93579-2.80736,5.42757-4.11747,10.10651-1.49726,4.67894-3.18168,9.17072-3.93031,10.29367-1.68442,2.43305-7.67346,20.40018-13.84966,41.17468-2.80736,9.17072-5.61473,18.90292-6.55052,21.52313-2.24589,6.1762-8.60925,29.38375-10.29367,36.49574-.56147,2.99452-2.05873,9.35788-2.99452,14.03682-1.87158,8.04778-3.18168,14.5983-7.29915,35.93427C3.74951,804.1966-.1808,849.67591.00636,913.49666c.18716,57.83171,1.49726,90.02282,4.11747,95.45039.93579,2.05873,2.05873,10.10651,2.62021,17.77998,1.3101,20.7745,5.98904,51.65551,10.48083,69.24832,1.12295,4.67894,2.62021,11.41662,2.99452,14.97261.56147,3.556,1.68442,8.23494,2.43305,10.29367.93579,2.05873,2.62021,8.42209,3.93031,14.03682,6.36336,28.63512,24.89197,87.58977,32.00396,101.43944.93579,1.87158,1.68442,5.05326,1.68442,7.11199s.93579,3.74315,1.87158,3.74315c1.12295,0,1.87158,1.68442,1.87158,3.74315s.93579,3.74315,1.87158,3.74315c1.12295,0,1.87158,2.05873,1.87158,4.49178,0,2.62021.93579,5.24041,1.87158,5.80189,1.12295.56147,1.87158,2.80736,1.87158,4.8661,0,1.87158.93579,3.556,1.87158,3.556,1.12295,0,1.87158,1.68442,1.87158,3.74315s.93579,3.74315,1.87158,3.74315c1.12295,0,1.87158,1.68442,1.87158,3.74315s.93579,3.74315,1.87158,3.74315c1.12295,0,1.87158,1.68442,1.87158,3.74315s1.87158,6.73767,3.93031,10.66799c2.24589,3.93031,9.17072,16.84419,15.34693,28.63512,6.36336,11.79093,13.28819,24.14333,15.34693,27.32501,2.24589,3.36884,5.24041,8.60925,6.55052,11.79093s2.99452,5.80189,3.93031,5.80189,1.68442.93579,1.68442,2.05873,2.43305,5.61473,5.61473,10.10651c3.18168,4.49178,5.61473,8.98357,5.61473,10.10651s.93579,2.05873,1.87158,2.05873c1.12295,0,1.87158,1.12295,1.87158,2.43305s1.68442,4.30463,3.74315,6.55052,3.74315,4.67894,3.74315,5.42757,2.05873,3.93031,4.67894,6.92483c2.62021,2.99452,4.67894,6.1762,4.67894,6.92483s1.12295,2.62021,2.43305,3.93031,4.49178,5.42757,6.92483,8.98357c2.43305,3.556,5.24041,7.29915,5.98904,8.42209.93579.93579,7.11199,9.35788,14.22398,18.71576,13.47535,18.15429,18.71576,24.51765,27.51217,33.50122,3.18168,3.18168,8.04778,9.17072,11.22946,13.28819,6.73767,9.17072,67.93822,70.55843,79.35484,79.54199,4.49178,3.556,11.60377,9.54504,15.9084,13.28819,4.11747,3.74315,11.97809,10.10651,17.03134,13.84966,18.52861,14.03682,31.8168,24.33049,35.37279,27.51217,2.05873,1.87158,4.8661,3.36884,6.1762,3.36884s2.43305.74863,2.43305,1.49726c0,.93579,2.24589,2.80736,5.24041,4.30463,2.80736,1.49726,6.73767,4.11747,8.60925,5.80189,2.05873,1.87158,4.49178,3.36884,5.24041,3.36884.93579,0,3.36884,1.68442,5.61473,3.74315,2.24589,2.05873,5.24041,3.74315,6.55052,3.74315s2.43305.74863,2.43305,1.87158c0,.93579.93579,1.87158,2.05873,1.87158s4.30463,1.49726,6.92483,3.556c2.80736,1.87158,8.04778,5.24041,11.60377,7.29915,3.556,2.05873,11.97809,6.73767,18.71576,10.66799,33.68837,19.46439,52.02982,29.00943,55.39866,29.00943,1.49726,0,2.62021.74863,2.62021,1.87158,0,.93579,1.68442,1.87158,3.74315,1.87158s3.74315.74863,3.74315,1.87158c0,.93579,1.68442,1.87158,3.74315,1.87158s3.74315.74863,3.74315,1.49726c0,.93579,4.30463,2.80736,9.35788,4.11747,5.24041,1.3101,9.35788,3.18168,9.35788,4.11747,0,.74863,1.68442,1.49726,3.74315,1.49726s3.74315.74863,3.74315,1.49726,3.93031,2.62021,8.98357,3.93031c4.8661,1.49726,10.10651,3.36884,11.60377,4.11747,8.42209,4.30463,20.7745,9.17072,23.02039,9.17072,1.3101,0,3.18168.74863,4.11747,1.68442,1.87158,1.49726,30.13238,10.85514,57.08308,18.71576,7.67346,2.24589,16.65703,4.8661,19.83871,5.80189,3.18168,1.12295,7.48631,1.87158,9.7322,1.87158,2.05873,0,4.30463.74863,4.8661,1.68442s3.74315,2.05873,7.11199,2.62021c3.36884.74863,9.17072,1.68442,12.72672,2.24589,3.556.74863,8.23494,1.87158,10.29367,2.80736,3.556,1.49726,9.7322,2.62021,29.57091,4.8661,4.8661.56147,8.79641,1.68442,8.79641,2.62021,0,.74863,5.61473,2.05873,12.72672,2.62021,6.92483.74863,19.65155,2.05873,28.44796,3.18168,82.53652,9.35788,180.41996,7.86062,252.66281-3.93031,6.73767-1.12295,16.65703-2.43305,22.0846-2.99452,5.24041-.56147,9.7322-1.87158,9.7322-2.62021s4.49178-2.05873,9.91935-2.62021c17.2185-1.68442,25.6406-3.36884,26.76354-5.05326.56147-.93579,4.67894-1.68442,9.35788-1.68442,4.49178,0,8.23494-.93579,8.23494-1.87158,0-1.12295,2.05873-1.87158,4.67894-1.87158,3.93031,0,10.85514-1.68442,32.37827-7.67346,3.18168-.93579,8.79641-2.43305,12.16525-3.36884,8.42209-2.24589,40.80036-12.91388,45.29215-14.97261,2.05873-.93579,8.79641-3.556,14.97261-5.80189,6.1762-2.24589,14.03682-5.42757,17.40566-6.73767,21.71029-9.35788,42.11047-18.52861,51.46835-23.3947,4.11747-1.87158,8.42209-3.556,9.7322-3.556s2.80736-.56147,3.18168-1.49726c.37432-.74863,8.23494-5.05326,17.40566-9.54504,9.35788-4.67894,19.83871-10.10651,23.3947-12.3524,3.556-2.24589,12.91388-7.86062,20.58734-12.3524,14.03682-8.04778,41.36184-25.6406,43.04626-27.69933.56147-.56147,3.18168-2.24589,6.1762-3.74315,2.80736-1.49726,5.05326-3.36884,5.05326-4.30463,0-.74863,1.12295-1.49726,2.43305-1.49726,1.12295,0,4.8661-2.05873,7.86062-4.49178,3.18168-2.62021,14.03682-10.85514,24.33049-18.52861,10.29367-7.67346,20.7745-15.72124,23.3947-18.15429,2.62021-2.24589,6.73767-5.61473,9.35788-7.29915,15.53408-10.10651,104.05964-99.3807,111.17163-111.92027.74863-1.68442,4.8661-6.36336,8.98357-10.66799,4.11747-4.11747,11.22946-13.10103,16.09556-19.83871,4.8661-6.73767,10.66799-14.22398,12.91388-16.84419,2.43305-2.62021,4.30463-5.24041,4.30463-5.80189s2.05873-3.556,4.67894-6.55052c2.62021-2.99452,4.67894-6.55052,4.67894-7.86062,0-1.12295.74863-2.24589,1.49726-2.24589.93579,0,2.80736-2.24589,4.30463-5.24041,1.49726-2.80736,4.11747-6.73767,5.98904-8.60925,1.68442-2.05873,3.18168-4.8661,3.18168-6.1762s.93579-2.43305,1.87158-2.43305c1.12295,0,1.87158-1.3101,1.87158-2.80736s.56147-2.80736,1.49726-2.80736c.74863,0,2.24589-1.87158,3.36884-4.30463,1.12295-2.24589,6.73767-11.97809,12.53956-21.33597,12.91388-21.33597,33.1269-59.89044,33.1269-63.44644,0-1.49726.56147-2.62021,1.49726-2.62021,1.49726,0,5.98904-9.17072,5.98904-12.53956,0-1.3101.93579-2.43305,1.87158-2.43305,1.12295,0,1.87158-1.68442,1.87158-3.74315s.93579-3.74315,1.87158-3.74315c1.12295,0,1.87158-1.68442,1.87158-3.556,0-2.05873.93579-4.30463,1.87158-4.8661,1.12295-.56147,1.87158-3.18168,1.87158-5.80189,0-2.43305.93579-4.49178,1.87158-4.49178,1.12295,0,1.87158-1.3101,1.87158-2.80736s.74863-4.30463,1.68442-6.1762c7.11199-13.84966,21.89744-58.01887,29.19659-86.46683,2.80736-10.85514,5.61473-21.71029,6.55052-24.33049.74863-2.62021,2.62021-9.7322,3.93031-15.9084s2.80736-12.16525,3.556-13.10103c1.3101-1.68442,2.80736-9.91935,4.8661-25.26628.56147-3.556,1.68442-8.23494,2.62021-10.29367s2.05873-7.48631,2.62021-12.16525,1.87158-13.84966,2.99452-20.58734c2.24589-13.47535,4.67894-34.62416,7.67346-68.31254,3.93031-42.8591,2.24589-160.01978-2.43305-160.01978-.74863,0-1.49726-6.1762-1.49726-13.66251s-.74863-14.41114-1.68442-15.53408c-.93579-.93579-2.24589-6.73767-2.62021-12.91388-.56147-6.1762-1.87158-15.9084-3.18168-21.52313-1.12295-5.61473-2.99452-13.84966-3.93031-18.34145-4.49178-20.58734-8.42209-37.80584-10.85514-47.16372-7.86062-30.13238-25.45344-86.46683-29.38375-94.32745-1.49726-2.99452-2.62021-6.1762-2.62021-7.11199s-1.68442-5.24041-3.74315-9.35788c-2.05873-4.30463-3.74315-9.35788-3.74315-11.0423,0-1.87158-.74863-3.93031-1.87158-4.49178-.93579-.56147-1.87158-2.80736-1.87158-4.8661,0-1.87158-.74863-3.556-1.87158-3.556-.93579,0-1.87158-1.68442-1.87158-3.556,0-2.05873-.74863-4.30463-1.87158-4.8661-.93579-.56147-1.87158-2.80736-1.87158-4.8661,0-1.87158-.74863-3.556-1.87158-3.556-.93579,0-1.87158-1.68442-1.87158-3.74315s-.74863-3.74315-1.87158-3.74315c-.93579,0-1.87158-1.3101-1.87158-2.80736,0-3.18168-10.85514-25.6406-13.10103-27.13786-.74863-.56147-1.87158-3.18168-2.43305-5.98904-.74863-2.80736-2.43305-6.1762-3.74315-7.48631-1.49726-1.3101-2.99452-3.36884-3.36884-4.30463-1.49726-3.93031-21.14881-39.3031-22.0846-40.23889-.56147-.56147-2.24589-3.18168-3.74315-6.1762-1.49726-2.80736-3.36884-5.05326-4.30463-5.05326-.74863,0-1.49726-1.12295-1.49726-2.43305s-1.49726-4.11747-3.36884-6.1762c-1.87158-1.87158-4.67894-6.36336-5.98904-9.7322-1.49726-3.18168-3.36884-5.98904-4.11747-5.98904-.93579,0-1.49726-1.3101-1.49726-2.80736s-.74863-2.80736-1.87158-2.80736c-.93579,0-1.87158-1.3101-1.87158-2.80736s-.74863-2.80736-1.49726-2.80736-2.80736-2.24589-4.49178-5.24041c-1.68442-2.80736-4.49178-6.73767-5.98904-8.79641-1.68442-2.05873-7.29915-9.7322-12.72672-16.84419-11.22946-14.97261-12.3524-16.46987-17.40566-22.0846-2.05873-2.43305-6.73767-8.04778-10.29367-12.53956-9.54504-12.3524-11.79093-14.97261-15.9084-19.46439-2.05873-2.24589-8.98357-9.91935-15.15977-17.03134-10.66799-12.16525-35.93427-37.43153-54.46287-54.46287-4.30463-4.11747-11.60377-10.66799-16.09556-14.97261-4.49178-4.11747-11.0423-9.54504-14.5983-11.97809s-7.67346-5.80189-9.17072-7.48631-5.80189-5.05326-9.35788-7.48631c-6.92483-4.8661-11.97809-8.98357-15.9084-12.53956-4.67894-4.49178-66.2538-45.47931-68.12538-45.47931-1.12295,0-2.05873-.74863-2.05873-1.68442s-1.49726-2.05873-3.18168-2.62021c-3.36884-1.12295-13.66251-6.92483-15.53408-8.79641-1.87158-1.87158-12.16525-7.67346-15.34693-8.79641-1.87158-.56147-3.36884-1.68442-3.36884-2.62021s-1.68442-1.68442-3.74315-1.68442-3.74315-.93579-3.74315-1.87158c0-1.12295-1.68442-1.87158-3.556-1.87158-2.05873,0-3.93031-.74863-4.30463-1.68442-.74863-2.05873-69.99696-35.93427-88.89988-43.42057-2.43305-.93579-6.36336-2.62021-8.98357-3.556-11.41662-4.49178-15.15977-6.1762-18.15429-7.67346-1.87158-.93579-5.05326-1.68442-6.92483-1.68442-2.05873,0-4.30463-.93579-4.8661-1.87158-.56147-1.12295-3.18168-1.87158-5.80189-1.87158-2.43305,0-4.49178-.93579-4.49178-1.87158,0-1.12295-2.80736-1.87158-6.36336-1.87158s-7.11199-.93579-7.67346-1.87158c-.56147-1.12295-3.18168-1.87158-5.61473-1.87158s-5.05326-.93579-5.61473-1.87158c-.56147-1.12295-3.18168-1.87158-5.61473-1.87158s-5.05326-.93579-5.61473-1.87158c-.56147-1.12295-3.556-1.87158-6.55052-1.87158s-5.80189-.74863-6.36336-1.68442-3.74315-2.05873-7.11199-2.62021-14.22398-2.80736-23.95618-4.8661c-57.64455-13.10103-82.34936-17.40566-133.81771-22.83323-23.20755-2.43305-140.55538-3.93031-146.91874-1.68442ZM869.16641,154.01098c-.37432,23.58186-.74863,42.8591-.93579,43.04626-.18716,0-12.16525,1.49726-26.57638,3.36884-47.16372,5.42757-78.79336,12.16525-125.39561,26.20207-64.19507,19.46439-111.73311,40.42605-168.06756,74.30158-50.71972,30.50669-79.72915,52.96561-125.58277,97.13481-81.41357,78.41905-143.36275,172.37218-183.97595,278.67772-17.40566,46.04078-34.99848,120.71667-37.80584,160.95557l-1.12295,17.77998-42.8591.56147-42.8591.37432,1.3101-14.41114c4.49178-51.28119,20.96166-128.20298,37.80584-178.36123,32.56543-95.45039,85.90535-188.46774,155.34084-269.88131,32.75259-38.36731,83.65946-87.0283,127.08003-121.4653,78.98052-62.69781,179.67133-111.92027,280.73645-137.56086,38.18016-9.54504,52.5913-12.3524,89.83566-17.40566,35.74711-4.8661,38.92879-5.05326,52.40414-5.42757l11.22946-.37432-.56147,42.48478ZM1016.64663,114.33356c150.28758,17.03134,288.59707,75.23737,409.87522,172.55934,105.74406,84.78241,185.0989,186.409,237.6902,304.50547,25.6406,57.83171,39.11595,101.6266,51.46835,167.69324,4.11747,21.71029,12.16525,84.03378,12.16525,93.95313,0,3.18168-3.36884,3.36884-42.8591,3.36884h-42.8591l-1.3101-13.66251c-3.556-39.67742-9.54504-72.05569-20.58734-111.73311-15.9084-56.52161-32.37827-99.19355-55.58582-143.92422-17.2185-33.1269-20.40018-38.55447-36.12142-61.3877-79.35484-115.10194-173.49513-197.82562-287.28697-252.66281-78.41905-37.80584-166.00882-64.75654-236.75441-72.61716-15.34693-1.68442-29.19659-3.556-30.50669-3.93031-1.87158-.56147-2.24589-10.10651-2.24589-42.8591l.18716-42.11047h9.7322c5.42757,0,21.14881,1.3101,34.99848,2.80736ZM778.95643,444.47963c48.28667,10.66799,75.23737,24.14333,121.27815,60.0776,11.41662,8.79641,20.21302,14.41114,21.52313,13.66251,1.12295-.74863,8.98357-6.73767,17.2185-13.47535,30.31954-24.33049,52.40414-37.05721,83.4723-47.91235,40.98752-14.22398,70.55843-18.71576,115.2891-17.2185,43.23341,1.49726,73.17863,8.60925,108.17711,26.01491,89.83566,44.91783,154.21789,132.69476,175.92818,240.12324,12.3524,61.01339,11.0423,139.24528-3.74315,204.00182-9.17072,40.61321-29.75806,93.76597-48.28667,124.83414-12.91388,21.52313-45.10499,61.94918-61.3877,77.2961-34.24985,32.00396-66.62812,54.08856-122.40109,83.65946-61.20055,32.56543-92.26871,54.08856-125.0213,86.46683-43.98204,43.42057-75.42453,97.50913-88.15125,151.22337-2.62021,10.66799-5.05326,22.45892-5.80189,26.20207-.56147,3.93031-1.87158,7.11199-2.62021,7.11199-2.80736,0-3.93031-18.52861-5.05326-79.54199-2.24589-111.54595,4.8661-163.20146,32.19111-232.8241,20.21302-51.28119,45.10499-87.58977,96.7605-140.36823,31.44248-32.00396,48.84814-44.91783,60.82623-45.10499,7.11199,0,18.90292,7.11199,24.70481,15.34693,4.67894,6.36336,5.61473,9.35788,5.61473,18.71576,0,13.66251-4.30463,20.58734-28.07365,45.47931-38.18016,40.05173-43.23341,46.78941-43.42057,57.45739-.18716,6.73767,4.30463,10.85514,11.60377,10.85514,17.2185,0,71.1199-45.47931,100.31649-84.22094,37.993-51.09403,66.06664-122.02678,77.85758-197.4513,4.67894-30.13238,5.61473-88.15125,1.68442-118.8451-3.93031-32.56543-8.60925-58.01887-10.48083-58.01887-2.99452,0-39.86458,14.03682-58.20602,22.0846-40.42605,17.77998-75.79884,37.61868-113.979,63.6336-29.75806,20.21302-43.98204,32.00396-69.8098,58.01887-55.39866,55.96013-94.70176,117.53499-114.54047,179.10986-4.30463,13.28819-8.23494,25.6406-8.79641,27.13786-.74863,2.24589-1.3101,2.24589-3.556-.74863-1.49726-2.05873-2.62021-5.24041-2.62021-6.92483,0-6.92483-13.84966-41.17468-28.82228-71.86853-29.38375-59.70329-82.53652-124.45983-136.81223-166.57029-31.8168-24.89197-86.65398-58.39318-117.90931-72.43-25.45344-11.60377-75.42453-31.44248-78.79336-31.44248-2.99452,0-3.74315,2.05873-8.23494,28.44796-7.86062,46.97657-8.98357,75.986-4.67894,119.03226,9.35788,91.33293,34.437,160.95557,80.10347,223.0919,14.22398,19.09008,43.04626,49.0353,63.6336,65.50517,13.66251,11.22946,34.24985,24.33049,37.80584,24.33049,1.3101,0,4.49178-1.68442,7.29915-3.93031,11.41662-8.98357,4.49178-22.0846-33.31406-62.69781-34.81132-37.43153-40.61321-54.83719-23.95618-72.43,10.10651-10.66799,22.83323-13.47535,34.81132-7.86062,5.61473,2.62021,59.89044,56.14729,82.91083,81.41357,26.38923,29.19659,48.28667,65.87949,65.13086,109.48722,22.45892,57.45739,30.50669,115.66342,28.44796,203.06603-1.3101,52.77845-5.05326,101.43944-7.67346,100.50365-1.12295-.37432-2.99452-6.92483-4.11747-14.5983-2.62021-17.2185-10.66799-46.78941-15.9084-58.95465-2.24589-5.05326-5.61473-12.91388-7.67346-17.59282-11.79093-26.38923-40.23889-66.62812-67.00243-94.32745-33.31406-34.62416-55.96013-49.97109-143.54991-97.69628-76.17316-41.36184-119.78089-78.60621-155.71515-132.13329-23.76902-35.55995-50.71972-100.31649-59.89044-143.73706-22.0846-104.80828-10.66799-210.36518,31.8168-296.27053,10.66799-21.89744,15.34693-29.19659,32.75259-53.33993,18.90292-26.01491,35.93427-43.42057,59.51613-61.01339,42.67194-31.8168,74.6759-45.85362,124.64698-54.65003,22.0846-3.93031,84.03378-2.24589,106.67985,2.80736ZM161.14908,964.96501h38.92879l1.12295,18.15429c3.74315,58.7675,22.0846,131.94613,48.47383,194.26962,44.54352,104.80828,107.98995,192.02373,196.1412,269.31984,28.63512,25.07912,41.36184,34.99848,68.31254,52.96561,100.31649,66.81528,213.3597,107.42848,331.26901,119.40657,6.1762.56147,14.03682,1.49726,17.40566,2.05873l5.98904.93579-.37432,43.42057-.56147,43.42057-14.97261-.56147c-85.15672-2.99452-205.49908-36.49574-297.58064-82.53652-84.96957-42.67194-148.22885-89.08703-214.48265-157.02525-46.04078-47.16372-80.10347-90.58429-114.91479-146.54443-25.07912-40.23889-42.48478-75.79884-66.44096-136.43792-21.89744-55.02434-40.23889-137.18655-44.1692-197.07699-1.3101-21.33597-.56147-26.76354,4.11747-24.89197,1.68442.56147,20.40018,1.12295,41.73615,1.12295ZM1727.09701,965.33932c3.74315,3.93031-12.53956,107.98995-24.51765,154.96652-17.59282,69.06117-57.83171,161.14272-96.01187,219.91022-13.10103,19.83871-51.28119,71.68137-65.50517,88.89988-14.22398,16.84419-61.76202,64.75654-81.78789,82.1622-57.64455,50.3454-137.18655,101.6266-201.75593,130.07456-86.09251,37.993-178.73554,61.20055-263.33079,65.87949l-22.45892,1.3101v-14.97261c0-8.23494.56147-27.69933,1.3101-43.04626l1.12295-28.2608,17.03134-1.3101c55.39866-3.93031,114.16616-16.84419,177.79975-39.3031,83.84662-29.57091,164.51156-76.17316,227.39653-131.57182,72.43-63.44644,130.63603-135.31497,167.8804-206.99634,40.98752-79.16768,69.06117-171.81071,75.79884-250.0426,1.68442-18.90292,2.99452-25.82775,5.24041-27.69933s11.79093-2.43305,41.73615-1.87158c21.14881.37432,39.3031,1.12295,40.05173,1.87158Z"/>
  <path class="cls-1" d="M908.0952,588.96532c-21.14881,2.24589-40.23889,11.79093-57.27024,28.82228-41.92331,41.54899-37.24437,111.35879,9.91935,148.60316,18.15429,14.41114,37.24437,20.7745,62.69781,20.7745,53.9014,0,96.94765-42.29763,97.50913-95.45039.37432-29.94522-8.98357-53.9014-29.19659-74.48874-20.96166-21.33597-50.90688-31.44248-83.65946-28.2608Z"/>
</svg>