<?xml version="1.0" standalone="no"?>
<!DOCTYPE svg PUBLIC "-//W3C//DTD SVG 20010904//EN"
 "http://www.w3.org/TR/2001/REC-SVG-20010904/DTD/svg10.dtd">
<svg version="1.0" xmlns="http://www.w3.org/2000/svg"
 width="2000.000000pt" height="2000.000000pt" viewBox="0 0 2000.000000 2000.000000"
 preserveAspectRatio="xMidYMid meet">

<g transform="translate(0.000000,2000.000000) scale(0.100000,-0.100000)"
fill="#074032" stroke="none">
<path d="M9610 16040 c-69 -3 -116 -8 -105 -11 11 -4 -27 -8 -85 -9 -69 -1
-98 -4 -85 -10 14 -6 -7 -9 -65 -10 -59 -1 -77 -4 -60 -10 18 -6 3 -8 -50 -9
-52 -1 -70 -4 -60 -11 11 -7 -4 -10 -50 -10 -46 0 -61 -3 -50 -10 11 -7 0 -10
-38 -10 -33 0 -51 -4 -47 -10 4 -6 -16 -10 -52 -10 -41 0 -54 -3 -43 -10 11
-7 2 -10 -33 -10 -30 0 -46 -4 -42 -10 4 -6 -8 -10 -29 -10 -20 0 -36 -4 -36
-9 0 -4 -28 -11 -62 -15 -34 -3 -67 -11 -72 -16 -6 -6 -23 -10 -38 -10 -15 0
-28 -4 -28 -10 0 -5 -13 -10 -30 -10 -16 0 -30 -4 -30 -10 0 -5 -16 -10 -36
-10 -21 0 -33 -4 -29 -10 4 -6 -5 -10 -19 -10 -14 0 -26 -4 -26 -10 0 -5 -13
-10 -30 -10 -16 0 -30 -4 -30 -10 0 -5 -9 -10 -20 -10 -11 0 -20 -4 -20 -10 0
-5 -13 -10 -30 -10 -16 0 -30 -4 -30 -10 0 -5 -9 -10 -20 -10 -11 0 -20 -4
-20 -10 0 -5 -14 -10 -31 -10 -17 0 -28 -4 -24 -10 4 -6 -5 -10 -20 -10 -15 0
-24 -4 -20 -10 4 -6 -9 -10 -32 -11 -30 0 -34 -2 -18 -9 16 -7 12 -9 -20 -10
-32 -1 -36 -3 -20 -10 16 -7 14 -9 -15 -9 -26 -1 -31 -4 -20 -11 11 -7 6 -10
-20 -10 -26 0 -31 -3 -20 -10 11 -7 7 -10 -17 -10 -18 0 -33 -4 -33 -10 0 -5
-10 -10 -22 -10 -19 0 -20 -2 -8 -10 11 -7 7 -10 -17 -10 -18 0 -33 -4 -33
-10 0 -5 -10 -10 -22 -10 -19 0 -20 -2 -8 -10 11 -7 7 -10 -17 -10 -18 0 -33
-4 -33 -8 0 -4 -29 -21 -65 -37 -36 -17 -65 -33 -65 -37 0 -5 -7 -8 -16 -8 -8
0 -12 -4 -9 -10 3 -5 -3 -10 -14 -10 -12 0 -21 -4 -21 -10 0 -5 -10 -10 -22
-10 -19 0 -20 -2 -8 -10 12 -8 11 -10 -7 -10 -13 0 -23 -4 -23 -10 0 -5 -8
-10 -18 -10 -10 0 -24 -9 -32 -20 -8 -11 -21 -20 -30 -20 -9 0 -22 -9 -30 -20
-8 -11 -24 -20 -35 -20 -16 0 -17 -2 -5 -10 12 -8 10 -10 -8 -10 -13 0 -20 -4
-17 -10 4 -6 -6 -10 -22 -10 -22 0 -25 -2 -13 -10 12 -8 10 -10 -8 -10 -13 0
-20 -4 -17 -10 4 -6 -6 -10 -22 -10 -22 0 -25 -2 -13 -10 12 -8 10 -10 -8 -10
-13 0 -20 -4 -17 -10 3 -5 -1 -10 -10 -10 -9 0 -13 -4 -10 -10 3 -6 -4 -10
-17 -10 -18 0 -20 -2 -8 -10 12 -8 11 -10 -5 -10 -11 0 -27 -9 -35 -20 -8 -11
-22 -20 -32 -20 -10 0 -38 -20 -62 -45 -25 -25 -50 -45 -56 -45 -6 0 -33 -22
-60 -50 -27 -27 -57 -50 -67 -50 -15 0 -16 -2 -3 -10 12 -8 10 -10 -8 -10 -13
0 -20 -4 -17 -10 3 -5 -1 -10 -10 -10 -9 0 -13 -4 -10 -10 3 -5 -1 -10 -10
-10 -9 0 -13 -4 -10 -10 3 -5 -1 -10 -10 -10 -9 0 -14 -3 -12 -7 2 -5 -27 -37
-64 -73 -170 -160 -287 -279 -282 -284 4 -3 -2 -6 -13 -7 -11 0 -14 -3 -6 -6
9 -4 7 -10 -7 -22 -12 -10 -18 -21 -14 -25 3 -3 -2 -6 -12 -6 -10 0 -15 -3
-12 -6 3 -4 -7 -19 -23 -34 -17 -16 -30 -33 -30 -39 0 -16 -66 -81 -74 -74 -3
4 -6 -2 -6 -11 0 -10 -13 -31 -30 -46 -16 -15 -30 -34 -30 -42 0 -7 -9 -20
-20 -28 -11 -8 -20 -24 -20 -35 0 -16 -2 -17 -10 -5 -8 12 -10 11 -10 -5 0
-11 -9 -27 -20 -35 -11 -8 -20 -21 -20 -30 0 -9 -9 -22 -20 -30 -11 -8 -20
-21 -20 -30 0 -9 -9 -22 -20 -30 -11 -8 -20 -21 -20 -29 0 -7 -8 -21 -19 -30
-10 -9 -21 -26 -25 -38 -4 -13 -12 -23 -17 -23 -5 0 -9 -9 -9 -20 0 -11 -4
-20 -10 -20 -5 0 -10 -8 -10 -18 0 -10 -9 -24 -20 -32 -11 -8 -20 -22 -20 -32
0 -10 -4 -18 -10 -18 -5 0 -10 -9 -10 -20 0 -11 -4 -20 -10 -20 -5 0 -10 -10
-10 -22 0 -19 -2 -20 -10 -8 -7 11 -10 6 -10 -20 0 -26 -3 -31 -10 -20 -8 12
-10 11 -10 -7 0 -13 -4 -23 -10 -23 -5 0 -10 -9 -10 -20 0 -11 -4 -20 -10 -20
-5 0 -10 -9 -10 -20 0 -11 -4 -20 -10 -20 -5 0 -10 -7 -10 -15 0 -8 -4 -15
-10 -15 -5 0 -10 -9 -10 -20 0 -11 -4 -20 -10 -20 -5 0 -10 -9 -10 -20 0 -11
-4 -20 -10 -20 -5 0 -10 -9 -10 -20 0 -11 -4 -20 -10 -20 -5 0 -10 -9 -10 -20
0 -11 -4 -20 -10 -20 -5 0 -10 -9 -10 -20 0 -11 -4 -20 -10 -20 -5 0 -10 -9
-10 -20 0 -11 -4 -20 -10 -20 -5 0 -10 -9 -10 -19 0 -11 -4 -21 -9 -23 -5 -2
-11 -14 -13 -28 -1 -14 -5 -27 -8 -30 -8 -8 -32 -73 -37 -102 -3 -16 -9 -28
-14 -28 -5 0 -9 -13 -9 -30 0 -16 -4 -30 -10 -30 -5 0 -10 -13 -10 -30 0 -16
-4 -30 -10 -30 -5 0 -10 -15 -10 -32 0 -25 -3 -29 -10 -18 -7 11 -10 3 -10
-30 0 -33 -3 -41 -10 -30 -7 11 -10 4 -10 -27 0 -24 -4 -43 -10 -43 -5 0 -10
-14 -10 -31 0 -17 -4 -28 -10 -24 -6 4 -10 -11 -10 -37 0 -31 -3 -39 -10 -28
-7 11 -10 4 -10 -27 0 -24 -4 -43 -10 -43 -5 0 -10 -18 -10 -40 0 -22 -4 -40
-10 -40 -5 0 -10 -24 -10 -52 0 -38 -3 -49 -10 -38 -7 11 -10 -1 -10 -40 0
-39 -3 -51 -10 -40 -7 11 -10 -2 -10 -43 0 -36 -4 -56 -10 -52 -6 4 -10 -16
-10 -52 0 -41 -3 -54 -10 -43 -7 10 -10 -8 -10 -60 0 -52 -3 -70 -10 -60 -7
10 -10 -16 -10 -83 0 -54 -4 -96 -9 -93 -5 3 -12 -102 -16 -234 -8 -268 3
-770 16 -748 5 8 9 -27 9 -85 0 -63 4 -96 10 -92 6 4 10 -22 10 -72 0 -54 3
-73 10 -63 7 11 10 -4 10 -50 0 -46 3 -61 10 -50 7 11 10 -4 10 -50 0 -46 3
-61 10 -50 7 11 10 -2 10 -43 0 -36 4 -56 10 -52 6 4 10 -12 10 -42 0 -35 3
-44 10 -33 7 11 10 3 10 -30 0 -33 3 -41 10 -30 7 11 10 -1 10 -40 0 -39 3
-51 10 -40 7 11 10 -1 10 -40 0 -39 3 -51 10 -40 7 11 10 3 10 -30 0 -33 3
-41 10 -30 7 11 10 3 10 -28 0 -26 4 -41 10 -37 6 4 10 -7 10 -24 0 -17 5 -31
10 -31 6 0 10 -13 10 -30 0 -16 5 -30 10 -30 6 0 10 -13 10 -30 0 -16 5 -30
10 -30 6 0 10 -9 10 -20 0 -11 5 -20 10 -20 6 0 10 -13 10 -30 0 -16 4 -30 9
-30 5 0 12 -17 15 -37 7 -39 65 -165 78 -171 5 -2 8 -12 8 -23 0 -10 5 -19 10
-19 6 0 10 -9 10 -20 0 -11 5 -20 10 -20 6 0 10 -9 10 -20 0 -11 5 -20 10 -20
6 0 10 -9 10 -20 0 -11 5 -20 10 -20 6 0 10 -9 10 -20 0 -11 5 -20 10 -20 6 0
10 -9 10 -20 0 -11 5 -20 10 -20 6 0 10 -9 10 -20 0 -11 5 -20 10 -20 6 0 10
-9 10 -20 0 -11 5 -20 10 -20 6 0 10 -10 10 -22 0 -19 2 -20 10 -8 8 12 10 11
10 -7 0 -13 5 -23 10 -23 6 0 10 -7 10 -15 0 -8 5 -15 10 -15 6 0 10 -9 10
-20 0 -11 5 -20 10 -20 6 0 10 -8 10 -18 0 -10 9 -24 20 -32 11 -8 20 -21 20
-30 0 -9 9 -22 19 -30 11 -7 18 -17 15 -21 -2 -4 2 -14 10 -22 8 -8 12 -17 9
-21 -4 -3 -1 -6 6 -6 7 0 10 -4 6 -9 -3 -5 5 -20 17 -33 13 -13 24 -30 26 -38
2 -7 12 -21 23 -31 10 -9 19 -23 19 -30 0 -8 9 -21 20 -29 11 -8 20 -18 20
-23 0 -5 14 -22 30 -37 17 -15 30 -34 30 -42 0 -7 9 -20 20 -28 11 -8 20 -24
20 -35 0 -16 2 -17 10 -5 8 13 10 12 10 -3 0 -11 14 -32 30 -47 17 -15 30 -33
30 -39 0 -6 25 -36 55 -66 30 -31 55 -61 55 -67 0 -6 45 -55 100 -109 55 -53
100 -105 100 -116 0 -15 2 -16 10 -3 8 12 10 11 10 -7 0 -14 6 -23 15 -23 9 0
27 -11 41 -25 14 -14 20 -25 14 -25 -7 0 -5 -6 4 -15 8 -8 20 -15 26 -15 6 0
48 -38 94 -85 46 -47 89 -85 96 -85 6 0 25 -14 40 -30 15 -17 36 -30 47 -30
15 0 16 -2 3 -10 -13 -8 -12 -10 3 -10 11 0 32 -13 47 -30 15 -16 36 -30 47
-30 15 0 16 -2 3 -10 -13 -8 -12 -10 3 -10 11 0 32 -13 47 -30 15 -16 33 -30
40 -30 7 0 25 -13 40 -30 15 -16 32 -30 37 -30 5 0 15 -9 23 -20 8 -11 22 -20
32 -20 10 0 18 -4 18 -9 0 -5 18 -17 40 -27 22 -10 40 -21 40 -26 0 -4 9 -8
20 -8 11 0 20 -4 20 -10 0 -5 8 -10 18 -10 10 0 24 -9 32 -20 8 -11 22 -20 32
-20 10 0 18 -4 18 -10 0 -5 8 -10 18 -10 10 0 24 -9 32 -20 8 -11 23 -20 33
-20 10 0 15 -4 12 -10 -4 -6 5 -10 20 -10 15 0 24 -4 20 -10 -4 -6 6 -10 22
-11 25 0 26 -1 8 -9 -16 -7 -14 -9 15 -9 26 -1 31 -4 20 -11 -12 -8 -9 -10 13
-10 16 0 26 -4 22 -10 -3 -5 3 -10 14 -10 12 0 21 -4 21 -10 0 -5 9 -10 20
-10 11 0 20 -4 20 -10 0 -5 9 -10 20 -10 11 0 20 -4 20 -10 0 -5 9 -10 20 -10
11 0 20 -4 20 -10 0 -5 9 -10 20 -10 11 0 20 -4 20 -10 0 -5 9 -10 20 -10 11
0 20 -4 20 -10 0 -5 9 -10 20 -10 11 0 20 -4 20 -10 0 -5 7 -10 15 -10 8 0 23
-4 33 -9 40 -21 91 -41 106 -41 9 0 16 -4 16 -10 0 -5 14 -10 30 -10 17 0 30
-4 30 -10 0 -5 15 -10 33 -10 24 0 28 -3 17 -10 -11 -7 -7 -10 18 -10 17 0 32
-4 32 -10 0 -5 15 -10 33 -10 24 0 28 -3 17 -10 -11 -7 -3 -10 30 -11 34 0 40
-2 25 -9 -15 -6 -8 -9 30 -10 38 -1 45 -4 30 -10 -15 -6 -8 -9 30 -10 38 -1
45 -4 30 -10 -15 -7 -9 -9 25 -9 33 -1 41 -4 30 -11 -11 -7 -2 -10 33 -10 30
0 46 -4 42 -10 -4 -6 11 -10 37 -10 31 0 39 -3 28 -10 -11 -7 -2 -10 33 -10
30 0 46 -4 42 -10 -4 -6 11 -10 37 -10 31 0 39 -3 28 -10 -11 -7 0 -10 38 -10
33 0 51 -4 47 -10 -4 -6 12 -10 40 -10 28 0 44 -4 40 -10 -4 -6 17 -10 57 -10
44 0 59 -3 48 -10 -11 -7 0 -10 38 -10 28 0 52 -4 52 -10 0 -6 28 -10 65 -10
37 0 65 -4 65 -10 0 -6 33 -10 80 -10 44 0 80 -4 80 -9 0 -20 590 -30 903 -16
86 4 157 11 157 16 0 5 36 9 80 9 47 0 80 4 80 10 0 6 28 10 65 10 37 0 65 4
65 10 0 6 24 10 53 10 37 0 48 3 37 10 -10 7 8 10 60 10 52 0 70 3 60 10 -11
7 0 10 38 10 33 0 51 4 47 10 -4 6 14 10 47 10 38 0 49 3 38 10 -11 7 1 10 40
10 39 0 51 3 40 10 -11 7 1 10 40 10 39 0 51 3 40 10 -11 7 -3 10 28 10 26 0
41 4 37 10 -4 6 12 10 42 10 35 0 44 3 33 10 -11 7 -3 10 30 11 34 0 40 2 25
9 -15 6 -7 9 30 9 36 1 46 4 35 11 -11 7 -5 10 25 10 30 0 36 3 25 10 -11 7
-3 10 30 10 33 0 41 3 30 10 -11 7 -7 10 18 10 17 0 32 5 32 10 0 6 14 10 30
10 17 0 30 5 30 10 0 6 9 10 20 10 11 0 20 5 20 10 0 6 14 10 30 10 17 0 30 4
30 9 0 5 13 11 30 14 16 4 49 16 72 27 23 11 48 20 55 20 7 0 13 5 13 10 0 6
9 10 20 10 11 0 20 5 20 10 0 6 9 10 20 10 11 0 20 5 20 10 0 6 9 10 20 10 11
0 20 5 20 10 0 6 9 10 20 10 11 0 20 5 20 10 0 6 9 10 20 10 11 0 20 5 20 10
0 6 9 10 21 10 11 0 17 5 14 10 -4 6 5 10 20 10 15 0 24 4 20 10 -4 6 5 10 20
10 15 0 24 4 20 10 -4 6 6 10 22 10 22 0 25 2 13 10 -12 7 -8 10 15 10 23 0
27 3 15 10 -12 8 -9 10 13 10 16 0 26 4 22 10 -3 6 3 10 14 10 12 0 21 5 21
10 0 6 10 10 23 10 18 0 19 2 7 10 -12 8 -11 10 8 10 12 0 22 5 22 10 0 6 8
10 18 10 10 0 24 9 32 20 8 11 22 20 32 20 10 0 18 4 18 8 0 5 18 17 40 27 22
10 40 22 40 27 0 4 6 8 13 8 7 0 23 9 35 20 12 11 26 20 32 20 5 0 10 5 10 10
0 6 7 10 16 10 8 0 12 4 9 10 -3 6 4 10 17 10 18 0 20 2 8 10 -12 8 -11 10 5
10 11 0 27 9 35 20 8 11 24 20 35 20 16 0 17 2 5 10 -12 8 -11 10 5 10 11 0
27 9 35 20 8 11 24 20 35 20 16 0 17 2 5 10 -13 8 -12 10 3 10 11 0 32 14 47
30 15 17 36 30 47 30 15 0 16 2 3 10 -13 8 -12 10 3 10 11 0 32 14 47 30 15
17 33 30 39 30 13 0 431 415 431 428 0 4 25 33 55 65 30 32 55 62 55 68 0 6
22 32 50 59 28 27 50 57 50 67 0 15 2 16 10 3 8 -12 10 -11 10 5 0 11 9 27 20
35 11 8 20 24 20 35 0 16 2 17 10 5 8 -13 10 -12 10 3 0 11 13 31 28 45 16 15
35 41 42 59 8 17 18 29 22 27 4 -3 8 2 8 10 0 9 4 16 8 16 5 0 15 12 23 28 8
15 20 33 27 40 7 8 10 18 7 23 -4 5 -1 9 6 9 7 0 9 3 6 6 -4 4 3 15 15 25 12
11 16 19 8 19 -8 0 -4 8 8 19 12 10 22 25 22 32 0 8 9 21 20 29 11 8 20 22 20
32 0 10 5 18 10 18 6 0 10 9 10 20 0 11 5 20 10 20 6 0 10 7 10 16 0 8 5 12
10 9 6 -3 10 1 10 9 0 9 5 16 10 16 6 0 10 9 10 20 0 11 5 20 10 20 6 0 10 9
10 20 0 11 5 20 10 20 6 0 10 9 10 20 0 11 5 20 10 20 6 0 10 10 10 23 0 18 2
19 10 7 7 -11 10 -7 10 18 0 17 5 32 10 32 6 0 10 9 10 20 0 11 5 20 10 20 6
0 10 9 10 20 0 11 5 20 10 20 6 0 10 9 10 20 0 11 5 20 10 20 6 0 10 9 10 20
0 11 5 20 10 20 6 0 10 9 10 20 0 11 3 20 8 20 8 0 32 48 32 66 0 6 7 25 15
40 8 16 15 37 15 47 0 9 5 17 10 17 6 0 10 14 10 30 0 17 5 30 10 30 6 0 10
14 10 30 0 17 5 30 10 30 6 0 10 14 10 30 0 17 5 30 10 30 6 0 10 15 10 33 0
24 3 28 10 17 7 -11 10 -3 10 28 0 26 4 41 10 37 6 -4 10 11 10 37 0 31 3 39
10 28 7 -11 10 1 11 40 1 43 3 49 9 30 6 -19 8 -13 9 30 1 39 4 51 11 40 7
-11 10 1 10 40 0 39 3 51 10 40 7 -11 10 1 10 40 0 39 3 51 10 40 7 -11 10 1
10 40 0 39 3 51 10 40 7 -11 10 3 10 45 0 42 3 56 10 45 7 -11 10 4 10 50 0
46 3 61 10 50 7 -11 10 4 10 50 0 46 3 61 10 50 7 -10 10 9 10 63 0 50 4 76
10 72 6 -4 10 26 10 82 0 54 4 83 9 74 13 -21 25 473 17 734 -4 127 -12 234
-17 240 -5 5 -9 47 -9 95 0 58 -3 80 -10 70 -7 -10 -10 9 -10 63 0 50 -4 76
-10 72 -6 -4 -10 15 -10 50 0 35 -4 54 -10 50 -6 -4 -10 16 -10 52 0 41 -3 54
-10 43 -7 -11 -10 1 -10 40 0 39 -3 51 -10 40 -7 -11 -10 0 -10 38 0 28 -4 52
-10 52 -5 0 -10 19 -10 43 0 31 -3 38 -10 27 -7 -11 -10 1 -10 40 0 39 -3 51
-10 40 -7 -11 -10 -5 -10 23 0 23 -4 36 -10 32 -6 -4 -10 12 -10 42 0 35 -3
44 -10 33 -7 -11 -10 -3 -10 30 0 33 -3 41 -10 30 -7 -11 -10 -3 -10 30 0 33
-3 41 -10 30 -7 -11 -10 -4 -10 28 0 23 -4 42 -10 42 -5 0 -10 14 -10 30 0 17
-4 30 -10 30 -5 0 -10 12 -10 26 0 14 -4 23 -10 19 -6 -4 -10 6 -10 24 0 16
-4 32 -9 35 -5 4 -12 24 -16 46 -4 22 -11 40 -16 40 -5 0 -9 9 -9 20 0 11 -4
20 -8 20 -4 0 -9 12 -10 28 -1 15 -7 29 -12 30 -6 2 -10 12 -10 23 0 10 -4 19
-10 19 -5 0 -10 9 -10 20 0 11 -4 20 -10 20 -5 0 -10 9 -10 20 0 11 -4 20 -10
20 -5 0 -10 12 -10 26 0 14 -4 23 -10 19 -6 -4 -10 5 -10 20 0 14 -4 24 -8 21
-5 -3 -15 10 -22 29 -8 19 -17 35 -22 35 -4 0 -8 9 -8 20 0 11 -4 20 -10 20
-5 0 -10 9 -10 20 0 11 -4 20 -10 20 -5 0 -10 9 -10 20 0 11 -4 20 -10 20 -5
0 -10 10 -10 23 0 18 -2 19 -10 7 -9 -13 -10 -13 -11 0 -1 8 -1 18 0 23 0 4
-4 7 -9 7 -6 0 -10 9 -10 20 0 11 -4 20 -10 20 -5 0 -10 9 -10 21 0 11 -4 17
-10 14 -5 -3 -10 1 -10 9 0 9 -4 16 -10 16 -5 0 -10 9 -10 21 0 11 -4 17 -10
14 -6 -3 -10 5 -10 19 0 16 -7 27 -20 31 -15 5 -19 12 -15 26 5 13 2 19 -10
19 -9 0 -13 5 -10 10 3 6 1 10 -4 10 -6 0 -11 8 -11 18 0 10 -9 24 -20 32 -11
8 -20 21 -20 30 0 9 -9 22 -20 30 -11 8 -20 24 -20 35 0 16 -2 17 -10 5 -8
-12 -10 -11 -10 5 0 11 -9 27 -20 35 -11 8 -20 24 -20 35 0 16 -2 17 -10 5 -8
-12 -10 -11 -10 5 0 11 -9 27 -20 35 -11 8 -20 24 -20 35 0 16 -2 17 -10 5 -8
-12 -10 -11 -10 5 0 11 -9 27 -20 35 -11 8 -20 20 -20 28 0 7 -4 10 -10 7 -5
-3 -10 -1 -10 5 0 6 -18 29 -40 50 -22 21 -40 46 -40 55 0 9 -4 13 -10 10 -5
-3 -10 1 -10 9 0 9 -5 16 -11 16 -5 0 -7 5 -4 10 3 6 -2 10 -11 10 -10 0 -15
3 -11 6 3 4 -12 24 -33 44 -22 21 -40 47 -40 57 0 15 -2 16 -10 3 -8 -12 -10
-12 -10 5 -1 11 -28 45 -61 75 -33 30 -89 83 -124 118 -36 34 -69 62 -75 62
-6 0 -8 5 -5 10 3 6 -1 10 -10 10 -9 0 -13 5 -10 10 3 6 -1 10 -10 10 -9 0
-13 5 -10 10 3 6 -3 10 -15 10 -12 0 -18 5 -15 10 3 6 -2 10 -11 10 -10 0 -15
3 -11 6 7 8 -58 74 -73 74 -6 0 -33 23 -60 50 -27 28 -54 50 -60 50 -11 0 -25
10 -65 48 -13 12 -30 22 -37 22 -8 0 -20 9 -28 20 -8 11 -24 20 -35 20 -16 0
-17 2 -5 10 12 8 10 10 -8 10 -13 0 -20 4 -17 10 3 6 -4 10 -17 10 -18 0 -20
2 -8 10 12 8 9 10 -13 10 -16 0 -26 4 -22 10 3 6 -4 10 -17 10 -18 0 -20 2 -8
10 12 8 11 10 -7 10 -13 0 -23 5 -23 10 0 6 -8 10 -18 10 -10 0 -24 9 -32 20
-8 11 -21 20 -30 20 -9 0 -22 9 -30 20 -8 11 -22 20 -32 20 -10 0 -18 5 -18
10 0 6 -8 10 -18 10 -10 0 -24 9 -32 20 -8 11 -21 20 -29 20 -7 0 -21 8 -30
18 -9 10 -44 32 -78 48 -35 16 -63 32 -63 36 0 5 -15 8 -32 8 -25 0 -29 3 -18
10 12 8 11 10 -7 10 -13 0 -23 5 -23 10 0 6 -15 10 -32 10 -25 0 -29 3 -18 10
12 8 11 10 -7 10 -13 0 -23 5 -23 10 0 6 -15 10 -32 10 -25 0 -29 3 -18 10 11
7 6 10 -20 10 -26 0 -31 3 -20 10 11 7 6 10 -20 10 -26 0 -31 3 -20 10 11 7 6
10 -20 11 -29 0 -31 2 -15 9 16 7 12 9 -18 9 -23 1 -36 5 -32 11 4 6 -5 10
-20 10 -15 0 -24 4 -20 10 4 6 -7 10 -27 10 -25 0 -29 3 -18 10 11 7 7 10 -17
10 -18 0 -33 5 -33 10 0 6 -15 10 -32 10 -25 0 -29 3 -18 10 11 7 7 10 -17 10
-18 0 -33 5 -33 10 0 6 -9 10 -20 10 -11 0 -20 5 -20 10 0 6 -13 10 -30 10
-16 0 -30 5 -30 10 0 6 -13 10 -30 10 -16 0 -30 5 -30 10 0 6 -9 10 -20 10
-11 0 -28 4 -38 9 -33 17 -124 41 -158 41 -19 0 -34 5 -34 10 0 6 -19 10 -42
10 -32 0 -39 3 -28 10 11 7 0 10 -38 10 -33 0 -51 4 -47 10 4 6 -14 10 -47 10
-38 0 -49 3 -38 10 11 7 -4 10 -50 10 -46 0 -61 3 -50 10 11 7 -2 10 -45 11
-43 0 -54 3 -40 9 14 6 -3 9 -55 10 -52 1 -69 4 -55 10 13 6 -8 9 -65 10 -57
1 -78 4 -65 10 13 6 -18 9 -90 10 -64 1 -99 5 -85 9 59 17 -578 25 -890 11z
m98 -837 l-3 -218 -75 -8 c-375 -38 -719 -124 -1081 -267 -325 -129 -677 -333
-946 -546 -108 -87 -397 -358 -468 -440 -363 -423 -598 -800 -772 -1244 -111
-283 -206 -670 -229 -927 l-7 -83 -214 0 -215 0 6 28 c3 15 10 70 16 122 31
267 104 589 188 840 286 846 856 1617 1605 2168 239 176 429 289 677 402 74
34 147 68 162 76 15 8 47 21 70 29 24 7 88 30 143 50 131 48 423 128 583 159
118 23 387 61 492 69 25 2 51 4 58 5 10 2 12 -44 10 -215z m772 197 c257 -26
571 -93 845 -181 988 -314 1903 -1055 2426 -1964 195 -340 345 -710 429 -1060
56 -236 122 -679 107 -718 -6 -16 -27 -17 -214 -15 l-208 3 -2 45 c-23 434
-206 1024 -457 1480 -231 418 -666 917 -1051 1207 -354 266 -790 488 -1225
624 -314 99 -414 119 -797 165 l-43 5 0 214 0 215 43 -5 c23 -3 89 -9 147 -15z
m-1425 -1740 c344 -39 598 -151 867 -381 31 -27 62 -49 68 -49 7 0 69 44 139
98 186 145 265 188 461 252 203 67 257 75 510 75 211 0 232 -2 330 -27 281
-71 501 -200 731 -428 143 -142 232 -266 331 -464 77 -153 102 -220 139 -370
42 -171 57 -274 70 -471 24 -377 -48 -784 -203 -1155 -176 -421 -508 -767
-983 -1027 -60 -33 -166 -91 -235 -128 -247 -135 -412 -257 -581 -431 -224
-232 -386 -523 -449 -808 l-17 -81 -8 76 c-4 42 -5 256 -2 475 4 351 7 414 26
524 76 438 223 765 477 1061 212 248 418 429 486 429 66 0 142 -71 153 -142
11 -73 -5 -98 -183 -287 -143 -151 -164 -176 -186 -218 -41 -81 -1 -151 79
-138 80 12 259 146 412 309 273 289 461 703 539 1187 25 157 30 501 10 669
-25 208 -47 320 -63 320 -23 0 -295 -106 -421 -164 -204 -94 -454 -245 -647
-391 -118 -89 -358 -326 -465 -460 -100 -126 -216 -308 -285 -450 -61 -124
-144 -348 -145 -390 0 -11 -16 25 -34 80 -57 173 -165 403 -249 532 -136 208
-397 501 -582 653 -92 75 -356 252 -485 326 -152 85 -575 264 -627 264 -21 0
-30 -40 -64 -265 -36 -245 -21 -590 38 -870 72 -345 193 -622 382 -876 101
-136 165 -205 280 -301 208 -175 292 -213 340 -152 53 67 20 129 -186 348
-167 178 -205 265 -148 348 13 20 44 45 67 57 81 39 129 10 343 -210 269 -276
349 -380 463 -599 75 -143 125 -276 168 -446 58 -230 68 -330 68 -694 1 -374
-13 -687 -25 -583 -18 152 -98 368 -194 529 -173 291 -404 523 -693 698 -87
53 -138 82 -407 229 -391 213 -659 453 -826 739 -168 287 -273 585 -314 888
-26 195 -31 498 -11 655 67 505 249 900 555 1205 259 258 569 403 921 430 142
11 167 11 265 0z m-2917 -2922 c71 -735 386 -1450 903 -2047 479 -552 1033
-926 1711 -1152 280 -94 611 -164 876 -185 l82 -7 0 -220 0 -220 -92 7 c-604
46 -1240 247 -1803 571 -212 122 -311 189 -495 336 -122 97 -377 326 -430 386
-8 9 -64 71 -124 137 -205 229 -459 590 -595 849 -33 62 -87 177 -121 257 -34
80 -72 171 -86 203 -35 81 -117 332 -148 452 -50 198 -85 406 -101 590 -3 39
-8 91 -11 118 l-6 47 214 0 214 0 12 -122z m8152 91 c0 -52 -29 -276 -56 -429
-63 -359 -144 -630 -286 -950 -225 -506 -492 -900 -868 -1278 -512 -516 -1137
-893 -1818 -1096 -271 -82 -702 -156 -900 -156 l-72 0 2 213 3 212 45 2 c233
13 435 48 697 122 303 85 513 165 748 284 451 228 828 522 1178 921 274 313
490 656 621 986 21 52 44 109 51 125 54 118 148 449 186 654 18 98 49 346 49
399 l0 22 210 0 210 0 0 -31z"/>
<path d="M9878 12874 c-179 -43 -336 -192 -390 -367 -17 -57 -20 -87 -16 -181
4 -109 6 -115 48 -201 49 -100 132 -192 214 -240 118 -69 318 -87 449 -41 229
81 370 291 354 527 -12 159 -58 261 -167 369 -120 119 -326 175 -492 134z"/>
<path d="M9115 5389 c-250 -17 -469 -193 -525 -424 -17 -68 -19 -283 -3 -294
6 -3 18 -31 26 -62 23 -78 105 -190 180 -246 65 -48 134 -83 172 -87 12 -2 27
-6 34 -10 11 -7 96 -19 136 -19 58 0 165 13 183 22 11 6 22 8 24 5 6 -6 125
53 133 66 3 5 13 10 21 10 9 0 27 14 41 30 13 17 32 30 41 30 8 0 13 3 9 6 -3
3 3 15 14 27 10 11 19 31 19 43 0 24 -102 134 -124 134 -7 0 -19 7 -26 15 -16
20 -32 19 -56 -3 -45 -42 -132 -100 -166 -111 -36 -12 -110 -16 -158 -8 -33 5
-122 53 -146 78 -10 11 -29 29 -41 41 -13 12 -23 30 -23 41 0 11 -7 25 -16 31
-12 9 -17 36 -21 98 -5 75 -3 92 16 132 13 25 21 47 19 50 -5 8 65 76 78 76 6
0 17 7 24 15 7 8 19 15 28 15 8 0 23 7 33 16 35 32 259 16 259 -18 0 -5 4 -7
9 -4 4 3 28 -13 52 -35 49 -44 79 -46 126 -9 14 11 31 20 37 20 15 0 86 77 86
94 0 17 -48 79 -88 111 -18 15 -72 47 -120 72 -98 50 -159 61 -287 52z"/>
<path d="M5957 5362 c-21 -24 -83 -149 -113 -230 -14 -37 -31 -76 -39 -88 -7
-12 -26 -50 -40 -85 -15 -35 -42 -95 -60 -134 -18 -38 -40 -88 -50 -110 -9
-22 -26 -58 -36 -81 -10 -22 -19 -43 -19 -47 0 -3 -13 -26 -30 -50 -16 -25
-30 -47 -30 -51 0 -3 -12 -31 -26 -63 -63 -139 -62 -134 -38 -157 12 -13 39
-16 124 -16 60 0 116 3 125 6 15 6 32 36 33 58 0 5 4 12 9 15 12 8 83 154 83
169 0 9 56 12 226 10 l225 -3 19 -35 c10 -19 31 -62 46 -95 15 -33 29 -62 33
-65 3 -3 7 -12 9 -20 7 -31 33 -39 166 -46 67 -4 91 -2 97 8 18 28 8 85 -27
153 -20 39 -51 104 -69 145 -18 41 -51 114 -74 162 -22 48 -41 91 -41 96 0 5
-11 29 -24 54 -13 24 -27 55 -31 69 -4 13 -13 31 -19 39 -7 8 -25 44 -40 80
-51 121 -71 165 -111 245 l-40 80 -111 2 c-95 2 -114 0 -127 -15z m161 -410
c12 -26 22 -53 22 -60 0 -7 4 -12 8 -12 5 0 9 -6 9 -13 0 -7 12 -36 26 -66 15
-29 27 -55 27 -57 0 -2 -59 -4 -131 -4 l-130 0 7 23 c3 12 10 27 15 33 10 13
69 156 69 168 0 14 34 44 45 39 6 -2 20 -25 33 -51z"/>
<path d="M7135 5358 c-58 -30 -59 -39 -52 -563 4 -310 10 -481 17 -502 13 -35
52 -53 116 -53 113 0 127 21 134 205 l5 140 100 -4 c112 -4 146 -17 169 -66 8
-17 24 -39 36 -50 11 -10 20 -23 20 -29 0 -6 14 -27 30 -46 17 -19 37 -49 45
-66 18 -39 50 -67 78 -70 167 -16 189 -16 212 -4 14 7 25 22 25 33 0 24 -48
111 -96 178 -19 26 -34 53 -34 60 0 8 -9 20 -19 26 -28 17 -85 103 -69 103 7
0 19 9 26 20 7 11 18 20 26 20 18 0 106 90 106 109 0 8 6 22 13 30 20 23 40
123 34 162 -15 88 -21 107 -44 156 -14 29 -44 72 -67 95 -111 116 -161 129
-514 131 -232 2 -267 0 -297 -15z m555 -255 c0 -7 5 -13 11 -13 7 0 27 -15 45
-32 30 -30 34 -39 34 -89 0 -50 -4 -60 -32 -90 l-33 -34 -169 -3 c-93 -2 -172
0 -177 5 -10 10 -22 250 -13 264 10 16 334 9 334 -8z"/>
<path d="M10501 5352 c-12 -13 -21 -28 -21 -34 0 -5 -6 -22 -14 -36 -29 -58
-70 -148 -72 -157 -2 -10 -77 -176 -94 -206 -4 -9 -13 -35 -20 -57 -6 -23 -16
-47 -23 -54 -17 -18 -77 -145 -77 -163 0 -8 -4 -15 -10 -15 -5 0 -10 -4 -10
-10 0 -9 -33 -84 -95 -215 -43 -90 -48 -110 -36 -133 9 -18 23 -20 124 -21
135 -2 128 -7 210 149 l55 105 221 3 c192 2 221 0 221 -13 0 -8 4 -15 9 -15 4
0 20 -28 35 -62 15 -35 43 -86 62 -114 l34 -51 126 0 125 -1 -6 30 c-4 17 -33
85 -65 152 -31 66 -70 155 -85 196 -16 41 -35 82 -42 91 -7 8 -13 21 -13 27 0
11 -22 66 -41 104 -5 10 -9 25 -9 33 0 8 -4 15 -9 15 -5 0 -14 15 -21 33 -14
37 -29 71 -62 147 -14 30 -31 71 -38 90 -8 19 -17 37 -20 40 -4 3 -15 28 -25
55 -10 28 -24 57 -32 66 -7 8 -13 20 -13 26 0 7 -34 14 -82 17 -128 9 -163 5
-187 -22z m173 -409 c9 -26 32 -79 51 -118 20 -38 35 -73 35 -77 0 -5 -58 -8
-130 -8 l-130 0 20 35 c11 20 20 44 20 55 0 11 4 20 8 20 5 0 15 19 22 43 7
23 17 46 22 52 4 5 8 15 8 22 0 8 6 20 13 27 19 22 42 2 61 -51z"/>
<path d="M11760 5372 c-30 -1 -65 -8 -78 -14 -41 -21 -45 -67 -38 -463 3 -203
6 -424 6 -490 0 -86 5 -125 14 -138 13 -17 33 -18 248 -17 246 2 301 5 320 16
6 4 23 9 37 10 56 6 88 18 125 45 22 16 45 29 51 29 7 0 20 9 30 20 10 11 24
20 31 20 17 0 114 118 114 139 0 7 7 22 16 36 33 50 51 138 51 250 0 67 -4
120 -12 135 -7 14 -15 40 -18 58 -4 18 -25 60 -48 93 -96 143 -213 225 -365
259 -48 11 -357 19 -484 12z m430 -270 c14 -5 27 -10 30 -10 17 -2 59 -23 65
-32 4 -6 18 -15 30 -20 13 -5 32 -24 41 -42 9 -18 20 -35 23 -38 41 -34 50
-216 14 -283 -26 -46 -99 -121 -111 -113 -5 3 -19 -3 -32 -14 -33 -29 -113
-42 -220 -37 -52 3 -101 6 -107 8 -10 2 -13 70 -13 301 l0 299 128 -5 c70 -2
138 -9 152 -14z"/>
<path d="M12972 5370 c-52 -22 -53 -42 -50 -564 l3 -482 25 -36 24 -36 85 3
c132 4 121 -47 118 556 l-2 509 -25 25 c-21 20 -38 26 -90 30 -36 3 -75 1 -88
-5z"/>
<path d="M13980 5372 c-16 -6 -34 -26 -48 -57 -6 -11 -30 -63 -55 -115 -63
-131 -77 -166 -77 -183 0 -9 -7 -22 -15 -31 -9 -8 -23 -32 -31 -53 -9 -21 -26
-60 -39 -88 -12 -27 -38 -84 -56 -125 -18 -41 -40 -86 -50 -100 -9 -14 -22
-43 -29 -65 -7 -22 -31 -76 -52 -120 -40 -82 -56 -150 -40 -173 10 -15 115
-34 120 -22 2 4 20 6 41 3 57 -8 92 17 127 91 15 33 28 63 27 66 -1 3 11 28
25 55 l27 50 205 3 c126 1 215 -2 230 -8 14 -6 32 -25 40 -43 59 -135 91 -195
106 -201 10 -4 69 -6 131 -5 137 2 135 -4 63 150 -27 59 -50 115 -50 123 0 9
-4 16 -8 16 -4 0 -14 17 -21 38 -8 20 -27 66 -43 101 -16 36 -30 73 -31 83 -1
10 -4 18 -8 18 -4 0 -9 14 -13 32 -3 17 -12 39 -20 47 -7 9 -20 34 -29 56 -8
22 -26 63 -39 90 -12 28 -23 55 -23 60 -1 6 -8 21 -17 35 -8 14 -34 70 -58
125 -63 151 -59 148 -176 151 -55 1 -106 -1 -114 -4z m130 -413 c0 -10 61
-148 84 -191 l15 -28 -124 0 c-106 0 -125 2 -125 16 0 18 26 79 78 181 36 70
37 71 54 51 10 -12 18 -25 18 -29z"/>
</g>
</svg>
